<?xml version="1.0" encoding="UTF-8"?>
<svg id="Capa_2" data-name="Capa 2" xmlns="http://www.w3.org/2000/svg" viewBox="0 0 23.72 23.72">
  <defs>
    <style>
      .cls-1 {
        fill: #000000;
      }
    </style>
  </defs>
  <g id="Capa_3" data-name="Capa 3">
    <path class="cls-1" d="M11.86,23.72C5.32,23.72,0,18.4,0,11.86S5.32,0,11.86,0s11.86,5.32,11.86,11.86-5.32,11.86-11.86,11.86ZM11.86,1.07C5.91,1.07,1.07,5.91,1.07,11.86s4.84,10.79,10.79,10.79,10.79-4.84,10.79-10.79S17.81,1.07,11.86,1.07Z"/>
    <g>
      <path class="cls-1" d="M13.18,14.96l-3.21,3.21c-.3.3-.65.53-1.04.69-.38.15-.77.23-1.18.23-.41,0-.8-.08-1.18-.23-.39-.16-.74-.39-1.04-.69s-.53-.65-.69-1.04c-.15-.38-.23-.77-.23-1.18,0-.41.08-.8.23-1.18.16-.39.39-.74.69-1.04l3.21-3.21c.19-.19.4-.35.63-.49.13-.08.27-.14.41-.2.38-.15.77-.23,1.18-.23.3,0,.6.04.89.13.1.03.2.06.29.1.39.16.74.39,1.04.69s.53.65.69,1.04c.04.1.07.19.1.29l-.16.16c-.28.28-.64.42-1.01.44-.06-.38-.23-.74-.52-1.03s-.65-.46-1.03-.52c-.57-.09-1.17.09-1.6.52l-3.21,3.21c-.73.73-.73,1.9,0,2.63s1.9.73,2.63,0l2.9-2.9c.25.06.51.09.78.09.31,0,.62-.04.91-.12-.13.23-.3.44-.49.63Z"/>
      <path class="cls-1" d="M19.09,7.76c0,.41-.08.8-.23,1.18-.16.39-.39.74-.69,1.04l-3.21,3.21c-.19.19-.4.35-.63.49-.13.08-.27.14-.41.2-.37.15-.77.23-1.18.23-.3,0-.6-.04-.89-.13-.1-.03-.2-.06-.29-.1-.39-.16-.74-.39-1.04-.69-.3-.3-.53-.65-.69-1.04-.04-.1-.07-.19-.1-.29l.16-.16c.28-.28.64-.42,1.01-.44.06.38.23.74.52,1.03.29.29.65.46,1.03.52.57.09,1.17-.09,1.6-.52l3.21-3.21c.73-.73.73-1.9,0-2.63-.73-.73-1.9-.73-2.63,0l-2.9,2.9c-.25-.06-.51-.09-.78-.09-.31,0-.62.04-.91.12.13-.23.3-.44.49-.63l3.21-3.21c.3-.3.65-.53,1.04-.69.38-.15.77-.23,1.18-.23.41,0,.8.08,1.18.23.39.16.74.39,1.04.69.3.3.53.65.69,1.04.15.38.23.77.23,1.18Z"/>
    </g>
  </g>
</svg>