<?xml version="1.0" encoding="UTF-8"?><svg id="Capa_2" xmlns="http://www.w3.org/2000/svg" viewBox="0 0 55.72 55.72"><defs><style>.cls-1{fill:#23631f;}.cls-2{fill:#f7f7f7;}</style></defs><g id="Capa_5"><circle class="cls-1" cx="27.86" cy="27.86" r="27.86"/><path class="cls-2" d="M24.71,5.71c1.07.22,2.16.42,3.13.97.45-.16.86-.4,1.31-.55.61-.2,1.26-.26,1.87-.43.59.04,1.23-.05,1.8,0,.31.03.92.16,1.25.24,2.53.59,4.83,2.38,5.44,4.98,4.82.26,8.94,5.29,5.59,9.71,1.62.78,3.1,1.88,3.8,3.59,1.77,4.28-1.94,7.94-6,8.44-1.75,4.55-7.24,5.3-11.42,3.98-.23,4.12-.31,8.28,0,12.4.06.76.27,1.71.28,2.44,0,.16,0,.31-.14.41h-7.49c-.28-.46,0-1.29.04-1.85.29-3.65.34-7.27.18-10.92-.04-.83-.04-1.66-.09-2.48-2.01.55-4.19.82-6.24.33-2.25-.53-4.4-2.09-5.18-4.31-4.07-.51-7.78-4.15-6-8.44.71-1.72,2.18-2.8,3.8-3.59-3.36-4.41.78-9.44,5.59-9.71.53-2.26,2.32-3.93,4.47-4.68.61-.21,1.58-.48,2.21-.54h1.8ZM24.52,51.36h6.68c-.26-1.6-.3-3.21-.36-4.83-.16-3.81-.33-9.15.4-12.86.52-2.67,2.77-4.34,4.43-6.31l1.76-2.26c-.85.54-1.79.98-2.57,1.63-.68.57-1.28,1.34-1.94,1.94-.6.54-2.33,1.95-3,2.23-.39.16-.47-.07-.52-.42-.07-.57.05-2.07.09-2.71s.11-1.41.2-2.06c.18-1.46.7-2.9.35-4.39l-1.89,2.94c-.09.06-.18.05-.27,0-.12-.06-.73-1.46-.89-1.73-.32-.56-.74-1.03-1.06-1.56-.68-1.16-1.1-2.47-1.62-3.7-.07,1.2.09,2.5.52,3.63.21.57.57,1.07.76,1.67.53,1.6.7,3.96.75,5.65.01.45.08,2.45-.14,2.67-.07.09-.15.09-.25.08-.19-.03-1.42-.93-1.68-1.12-1.24-.91-2.31-2.01-3.39-3.1l-2.57-1.58c.56.76,1.15,1.5,1.76,2.21,2.72,3.17,4.19,3.68,4.65,8.25s.39,9.79,0,14.43c-.04.42-.11.89-.18,1.31Z"/></g></svg>