<?xml version="1.0" encoding="UTF-8"?><svg id="Capa_2" xmlns="http://www.w3.org/2000/svg" viewBox="0 0 55.72 55.72"><defs><style>.cls-1{fill:#5f2720;}.cls-2{fill:#f7f7f7;}</style></defs><g id="Capa_5"><circle class="cls-1" cx="27.86" cy="27.86" r="27.86"/><path class="cls-2" d="M28.87,14.51l2.99-4.26c.39-.82,2.55-1.44,3.1-.76.68.86.14,3.06-.47,3.9-.39.55-1.22.95-1.49,1.66-.17.44-.04.94-.08,1.39l1.07-1.01c1-.77,2.45-1.28,3.57-.49l.39,2.21c-.72,1.5-2.62,2.02-2.49,3.95.88-.12,4.73-.61,5.27-.15.31.27.39,3.16.28,3.63-.05.21-.65.92-.84,1.09-.36.33-.75.38-1.07.71l3.18-.92c.1.02.77,1.71.77,1.89.03.81-2.17,1.77-2.79,2.16-1,.64-1.86,1.51-2.38,2.59.28.32.7.06,1.06.05.83-.03,3.48.17,4.11.66.44.35,0,1.58-.13,2.1-.45,1.75-.76,2.18-2.56,2.71-.35.1-1.51.22-1.62.41-.27.44.59.77.56,1.26-.38.64-.46,1.42-.79,2.05-.31.6-2.84,2.82-3.47,3.22-.47.3-1.93.04-2.45-.18-.39-.16-.35-.48-.84-.38-.27.06-.29.34-.51.51-.63.51-3.57,1.72-4.35,1.71-.22,0-2.19-.59-2.35-.69-.42-.27-.79-1.63-.97-2.12-1.51-.12-.48,1.57-2.15,1.28-1.36-.24-3.24-2.16-4.54-2.76-.98-1.51.56-3.03.81-4.51-1.67-.03-2.84-.69-3.85-1.98-.27-.34-.4-.75-.66-1.06-.17-.21-.66-.49-.72-.61-.13-.25.39-1.73.61-1.93.4-.37,1.73-.56,2.28-.71-.33-.44-1-.22-1.47-.5-.41-.25-.94-1.08-1.26-1.47-.02-.65,2.39-2.58,3.04-2.74.95-.24,2.09.85,3.14.66.06-.26-.08-.18-.19-.26-.16-.13-.8-.66-.92-.69-.45-.12-1.49-.07-2.06-.19-.94-.2-1.5-.38-1.17-1.42.56-1.72,1.8-2.38,3.5-2.68.66-.12,1.85-.25,2.49-.22.23,0,.49.16.73.19l.24-.16c-.21-.91-1.15-1.81-2.02-2.12-1.36-.48-2.39.02-1.57-2.08.39-.99,2.24-2.79,3.34-2.85.49-.02,1.58.22,2.08.36.84.24,1.61.68,2.43.96-.05-.96-.19-1.92-.31-2.88-.21-1.63-.6-3.51-.06-5.15.41-1.24,1.75-.48,2.74-.57,2.04,1.67.71,4.92.78,7.17ZM27.35,15.72c.76-1.17.4-2.51.51-3.8.04-.49.33-1.21.31-1.62-.02-.48-1.09-1.46-1.41-1-.8,1.14,0,3.32.18,4.56.05.33-.02.67.01,1,.01.14.12,1.06.4.86ZM30.79,14.05c-.09.63.06,1.42,0,2.08h.3c.12-.43.04-.95.12-1.35.07-.33.97-1.53,1.24-1.8.53-.52,1.49-.65,1.09-1.59-.37-.87-1.35.28-1.7.68-.45.52-.97,1.29-1.06,1.98ZM32.52,22.51c.76-.51.73-2.83,1.26-3.35.14-.13.49-.09.76-.25.32-.2,1.78-1.76,1.95-2.1.48-1-.23-1.42-1.09-.99-.7.36-2.73,2.61-2.84,3.34-.03.17.06.31.05.45,0,.1-.09.18-.09.21v2.69ZM24.92,20.39c.1-.09-.91-2.35-1.03-2.57-.53-.98-1.98-1.02-2.77-1.75-.25-.02-1.18,1.03-1.12,1.29.48.94,1.42,1.06,2.22,1.53.87.51,1.6,1.53,2.71,1.5ZM27.75,21.91c.17-.55.86-2.45,1.39-2.61.31-.1.92.03,1.13-.29.52-.83-.84-1.58-1.56-1.66-.4-.04-1.72-.07-1.98.14-.83.69.17,2.27.45,3.02.16.42.08,1.08.57,1.4ZM38.78,22.24c-.58,0-2.71.46-3.07.88s-.99,1.75-1.25,2.3c-.36.75-1.15,2.43-1.29,3.17-.03.17-.06.18.11.31.89-1.03,1.7-2.15,2.63-3.14.16-.17.85-.91.97-.96.2-.09.93.09,1.34.03.58-.09,1.37-.47,1.61-1.02.47-1.07.07-1.57-1.05-1.56ZM30.66,23.15c-.3-.24-1.32-.07-1.73-.02-1.36.17-3.46.49-3.79,2.09-.19.94.93.48,1.18.65.09.05.67,1.59.82,1.87.05.11-.05.19.21.14l1.54-2.41c.57-.33,3.41,1.1,2.77-1.04-.05-.17-.85-1.17-1-1.28ZM15.82,25.02c1.49.56,3.02-.21,4.54-.24l2.07,1.88c.62-.22-.04-1.09-.3-1.42-1.43-1.77-2.3-1.55-4.36-1.32-.33.04-.67-.05-.99.02-.22.05-1.03.66-1.06.84l.1.23ZM41.33,27.18c-1.29.43-2.99.73-3.44,2.23.71-.44,1.44-.83,2.19-1.2.53-.26,1.22-.24,1.25-1.03ZM19.04,30.11c-.39-.56-.03-1.13-.57-1.71-.18-.2-1.29-.82-1.56-.88-.89-.18-1.67.53-2.13,1.22.73.09,1.65.24,2.35.48.33.12,1.71,1.03,1.9.88ZM21.03,28.71c-.26.08-.66,1.01-.66,1.27,0,.32.66.63.92.75.92.43,2.07.68,3,1.15.64.4.84,1.87,1.27,2.28.27.26.49-.01.54-.28.08-.41-.15-.54-.22-.86-.18-.82-.34-2.18-.94-2.81-.54-.56-3.2-1.73-3.92-1.51ZM35.25,30.11c-.44.02-.8.18-1.26.21-1.14.06-2.17-.45-3.35-.31s-1.25,1.67-1.56,2.49-.84,1.53-.81,2.38c.17.02.23.02.35-.1.22-.2.58-1.26.88-1.65.71-.92,1.04-.55,1.96-.68.52-.07,2.67-.43,2.99-.66.21-.15.98-1.5.81-1.67ZM20.54,36.38c.63-.76-.02-1.49-.45-2.2-.4-.66-.99-1.73-1.81-1.83-.44-.05-2.67-.06-3,.05-.3.1-.75,1.24-.69,1.5.1.43,1.32,1.39,1.78,1.47.68.12.79-.26,1.72,0s1.56.9,2.44,1.02ZM40.69,35.45c.1-.08.44-.6.43-.73-.35-.66-1.02-1.03-1.77-.96-1.07.1-3.1,2.26-3.58,3.21-.11.21-.36.79.08.59.24-.1.59-.48.88-.64,1.37-.79,2.58-.31,3.95-1.47ZM34.34,35.18c-.74.09-1.33.58-2.08.81-.41.13-.88.15-1.24.28-.1.03-1.64,1-1.75,1.09-.34.28-.55.96-.36,1.36.16.32.44.1.66.15.8.16,1.05.4,1.92.1,1.29-.44,2.54-1.94,2.82-3.26.04-.18.03-.35.02-.53ZM27.64,36.92c-.87-.08-1.97-.09-2.72-.58-.27-.18-.77-.81-1.16-.73-.33.07-.7,1.52-.96,1.84.4.44.72.9,1.26,1.17.48.23,1.8.59,2.31.52.62-.09,1.63-1.57,1.26-2.21ZM18.95,38.43c-.79,1.23-.41,2.62.7,3.48,1.36,1.04,2.42.98,3.74-.1.09-.35-1.38-.73-1.66-.87-.53-.27-1.04-.76-1.43-1.2-.42-.48-.66-1.27-1.35-1.31ZM37.68,39.13c-.7-.16-2.48.49-2.76,1.14-.3.7-.46,1.1-1.05,1.69l-1.16.62c.69.08,1.62.5,2.29.21.17-.07.96-.76,1.1-.93.2-.24,1.4-2.02,1.5-2.25.07-.16.1-.3.08-.48ZM30.69,42.27c-1.25.03-2.54.66-3.8.51-.53-.07-.96-.54-1.47-.71-.03.18-.13.35-.11.55,0,.06.67.96.75,1.04.62.6,2.74.35,3.45-.08.45-.28.79-.93,1.18-1.3Z"/></g></svg>