<?xml version="1.0" encoding="UTF-8"?><svg id="Capa_2" xmlns="http://www.w3.org/2000/svg" viewBox="0 0 55.72 55.72"><defs><style>.cls-1{fill:#5f2720;}.cls-2{fill:#f7f7f7;}</style></defs><g id="Capa_5"><circle class="cls-1" cx="27.86" cy="27.86" r="27.86"/><path class="cls-2" d="M37.98,20.9c2.37-.16,4.67-.6,6.87-1.48,1.27-.51,2.13-1.37,3.57-.41s1.11,2.22.88,3.61c-1.12,6.85-4.56,14.16-10.56,17.99s-13.17,3.64-18.32-1.19c.58,2.78-.12,5.64-1.55,8.05-.27.45-1.09,1.8-1.56,1.88-.55.08-.99-.31-.86-.85.09-.35,1.22-1.79,1.5-2.32,3.33-6.22-.98-10.32-1.82-16.16-.63-4.44.35-9.01,2.75-12.78s6.58-6.8,8.64-10.83c.84-1.64.98-3.53,3.44-3.25,1.41.16,2.57,2.5,3.21,3.66,2.39,4.28,4.01,9.13,3.8,14.1ZM27.19,25.38c1.6.11,3.15-.22,4.72-.47.7.12.88,1.04.22,1.36-.2.1-.59.17-.83.22-1.78.41-3.63.37-5.44.28-2.47,2.26-5.36,4.56-6.08,8.03.03.17.81.35,1,.4,5.19,1.31,10.77-1.52,13.43-5.99,3.84-6.48,2.56-14.32-.75-20.71-.49-.95-1.41-2.68-2.07-3.47-.35-.42-.66-.58-1.23-.4-.54.17-1,1.79-1.28,2.35-2.19,4.34-6.46,7.24-8.97,11.36-2.33,3.84-3.07,8.78-2,13.15.06.25.53,1.86.61,1.93.16.16.16-.05.2-.13.24-.54.41-1.06.7-1.59.76-1.36,1.82-2.5,2.9-3.6-.66-1.8-1.06-3.66-.72-5.59.1-.58.26-1.52,1.07-1.23.9.32.27,1.62.24,2.35-.05,1.04.15,2.36.62,3.29,2.47-2.23,5-4.52,5.3-8.07.03-.41-.27-.68.23-1.1.89-.73,1.23.57,1.2,1.29-.09,2.38-1.5,4.64-3.06,6.34Z"/></g></svg>