<?xml version="1.0" encoding="UTF-8"?><svg id="Capa_2" xmlns="http://www.w3.org/2000/svg" viewBox="0 0 55.72 55.72"><defs><style>.cls-1{fill:#5f2720;}.cls-2{fill:#f7f7f7;}</style></defs><g id="Capa_5"><circle class="cls-1" cx="27.86" cy="27.86" r="27.86"/><path class="cls-2" d="M27.35,18.26c1.44.14,2.83.97,3.45,2.29l.52,1.25c.09-.49.28-.99.48-1.44.9-2.03,2.41-3.04,2.19-5.52-.05-.53-.33-1.01-.3-1.53,1.05-.48,2.48.12,2.78,1.25.4-.74.95-1.23,1.69-1.61l-1.06-1.15c-.36-.57-.49-1.25-.44-1.92.03-.39.42-2.05.83-2.09.19-.02.97.43,1.16.57,1.31.97,1.6,2.44,1,3.92.91-.24,1.66-.75,2.28-1.46.73-.84,1.34-2.43,2.64-2.4.31,0,.87.17.91.51.13,1.03-1.18,1.37-1.03,2.04.03.13.83.18,1.03.25.6.21.72.84.28,1.3-.41.43-1.89.41-2.56.59-1.62.43-2.9,1.56-4.01,2.75.38,0,.76-.17,1.14-.2,1.74-.11,3.69,1.34,4.31,2.93.22.57-.34.76-.79.98-2.56,1.28-4.66.22-6.2-1.94-1.42,1.6-2.56,3.15-3.09,5.26-.39,1.54-.74,3.42-.42,4.98,1.01-.21,3.07-1.43,3.62-.08,1.71-.9,3.4-.84,4.72.67.23.26.95,1.25.86,1.56-.06.2-.85.58-1.07.67-2.03.78-3.43-.02-4.74-1.56-.38,1.09-1.81,1.41-2.73,1.95-2.37,1.41-2.76,5.09-5.93,5.21l.77,1.32c.44,1.08,0,2.27-.69,3.13-.8.98-1.09.77-1.76-.2-.94-1.36-.73-2.79.19-4.09-2.92.02-5.49,1.73-6.93,4.21.31.17.68.15,1.01.25,1.16.36,1.85,1.21.56,2.02s-2.31.14-3.56.69c-1.53.67-2.5,2.34-4.12,2.96-1.35.52-4.26.38-4.63-1.39-.32-1.57,1.5-2.21,2.51-2.85,1.87-1.21,5.93-4.33,6.47-6.52.4-1.62-.6-3.82-1.65-5.04-.37-.43-1.48-1.21-1.53-1.7-.1-.81.85-.86.87-.95-.07-1.15.06-2.23.39-3.33-2.22.33-4.17-1.06-4.68-3.23-.1-.44-.33-2-.11-2.32s1.51-.01,1.88.07c1.87.42,3.72,1.55,3.82,3.66.46-.62,1.1-1.28,1.36-2.02.87-2.46-1.24-5.55.69-7.81.21-.25,1.26-1.11,1.45-.58.08.24-.41,1.66-.45,2.12-.18,1.99.4,2.77.74,4.51.68,3.47-2.82,5.01-2.56,7.99.06.7.43,1.63.86,2.17.12-2.2,1.63-3.53,3.75-3.85.57-.08,1.35-.2,1.84.11v1.34c0,.22-.22.94-.31,1.18-.66,1.82-2.57,2.71-4.41,2.79l1.7,3.31c2.15.04,4.5-.55,6.32-1.7,3.35-2.12,1.76-5.33,2.21-8.61-2.4.15-4.35-1.09-4.78-3.52-.05-.29-.26-2.14.1-2.14.38.03.8-.04,1.18,0ZM44.87,9.13c-.34-.1-.8,0-1.06.23-.51.46-1.07,1.62-1.65,2.21-1.58,1.61-4.39,1.43-5.24,3.66-.14.37-.16,1.2-.63,1.11-.31-.06-.24-1.09-.35-1.46-.22-.76-.71-1-1.46-1.1.29,1.44.24,2.84-.46,4.15-1.04,1.95-1.98,2.82-2.43,5.2-.85,4.51,1.66,8.01-3.69,10.55-.98.47-2.09.82-3.16,1.01-.46.08-2.64.36-2.89.11-.1-.1-.42-1.09-.55-1.34-1.09-2.19-3.29-4.64-3.03-7.2.18-1.79,2.03-3.4,2.51-5.12s-.53-3.06-.7-4.72c-.09-.92.01-1.89.16-2.79-1.5,1.72-.19,4.23-.32,6.26-.11,1.84-1.14,2.47-1.95,3.87-.7,1.2-1.03,2.61-.96,4,.05.93.57,1.36-.86,1.14-.04.14.06.16.12.24.63.82,1.43,1.26,2.07,2.34,2.32,3.91.67,6.11-2.27,8.8-1.63,1.49-3.14,2.2-4.87,3.39s-.54,2.42,1.14,2.55c2.98.24,3.73-2.33,6.05-3.24,1.11-.44,2.21.05,3.15-.47,1.04-.58.25-.85-.51-1.03-.89-.21-1.69.14-1.1-1.05,1.14-2.3,3.75-4.13,6.28-4.5,1.25-.18,2.91.01,4.02-.63,1.47-.84,2.15-3.04,3.41-4.15.94-.82,2.96-1.27,3.42-2.32.29-.65.38-1.12-.51-.99-.76.11-1.8.67-2.5.74-.55.05-.63-1.1-.65-1.52-.2-3.27,1.1-6.47,3.07-8.97s4.15-5.17,7.46-5.77c.5-.09,1.2.04,1.51-.38,0-.23-1.38-.04-1.56-.8-.23-1,.69-1.21,1.01-1.99Z"/></g></svg>