<svg xmlns="http://www.w3.org/2000/svg" viewBox="0 0 697.4 322.78"><defs><style>.cls-1{fill:#fff;}</style></defs><g id="Capa_2" data-name="Capa 2"><g id="Capa_1-2" data-name="Capa 1"><rect width="697.4" height="322.78" rx="48"/><path class="cls-1" d="M537.88,267.89h71l-94.67-213h-71L431.37,81.51l-6-13.45c-3.55-7.87-10.13-13.16-17.67-13.17H289.37c-7.53,0-14.11,5.27-17.67,13.13l-6,13.49L253.87,54.89h-71l-94.66,213h71l59.17-133.13,11.83,26.63-47.34,106.5h71l11.84-26.62,6,13.49c3.56,7.85,10.14,13.13,17.67,13.13H407.71c7.54,0,14.13-5.3,17.69-13.17l6-13.45,11.84,26.62h71l-47.33-106.5,11.83-26.63ZM328.79,99.32h0a21.63,21.63,0,0,1,39.47-.06h0l27.61,62.13-27.58,62.07h0a21.62,21.62,0,0,1-39.48.05v0l-27.6-62.12Zm89.11,152c-2.32,5.13-6.23,8.32-10.19,8.32H289.37c-3.95,0-7.85-3.17-10.18-8.28L195.5,63.1h53l72.78,163.76.12,0-.11,0a29.84,29.84,0,0,0,54.47-.07h0l24.58-55.3,26.51,59.66Zm44.48-100.08L435.87,91.62,448.55,63.1h53Z"/></g></g></svg>