<?xml version="1.0" encoding="UTF-8"?><svg id="Capa_2" xmlns="http://www.w3.org/2000/svg" viewBox="0 0 151.62 110.64"><defs><style>.cls-1{fill:#c21330;}</style></defs><g id="Capa_2-2"><path class="cls-1" d="M100.99,15.11h30.67c2.88,0,5.01,3.34,6.09,5.55,3.85,7.86,8.67,18.88,11.61,27.08,4.34,12.08.92,29.06,1.82,41.94-1.27,4.79-5.58,6.58-10.24,5.96-2.95,19.98-31.69,19.96-34.61,0h-58.34c-3.4,19.94-31.7,20.03-34.79,0-5.84.52-12.01-.09-12.91-7.07.77-12.68-.99-26.49,0-39.04.2-2.56,1.06-4.13,2.16-6.33C9.34,29.46,17.82,16.23,25.33,2.85,27.17,1.33,29.24.33,31.63.02l62.3-.02c2.44.17,4.57,1.5,5.88,3.55.26.4,1.18,2.32,1.18,2.59v8.97ZM95.96,80.55V6.78c0-.72-1.8-2.03-2.66-1.75h-61.06c-1.34-.01-2.51.7-3.46,1.58-6.87,12.84-15.06,25.52-21.59,38.5-.42.84-1.83,3.42-1.83,4.14v31.3h12.74c.25,0,2.4-1.94,3.01-2.33,5.6-3.53,12.99-3.59,18.64-.13.62.38,2.91,2.46,3.2,2.46h53.01ZM134.03,25.18c-.08-1.2-1.73-5.03-2.99-5.03h-30.04v70.47h5.35c2.9-19.96,31.7-19.98,34.61,0,1.3.19,5.35.15,5.35-1.73v-33.51h-36.34c-1.66,0-3.68-2.65-3.9-4.27-.9-6.64.5-15.34.11-22.17.1-1.38,2.54-3.76,3.79-3.76h24.07ZM136.54,30.22h-25.48v20.13h33.66l-8.18-20.13ZM43.1,93.14c0-6.95-5.63-12.58-12.58-12.58s-12.58,5.63-12.58,12.58,5.63,12.58,12.58,12.58,12.58-5.63,12.58-12.58ZM136.23,93.14c0-6.95-5.63-12.58-12.58-12.58s-12.58,5.63-12.58,12.58,5.63,12.58,12.58,12.58,12.58-5.63,12.58-12.58ZM14.48,85.58H5.35c-.96,6.44,3.34,4.92,7.86,5.03l1.26-5.03ZM95.96,85.58h-49.39c.31,1.71,1.39,3.25,1.26,5.03h48.13v-5.03Z"/><path class="cls-1" d="M64.5,65.45c1.23,2,4.76,3.38,3.54,6.21-.78,1.79-2.79,1.58-4.17.56s-6.39-6.05-7.39-7.39c-.74-.99-1.05-1.58-.64-2.85.19-.58,7.13-7.65,8.03-8.33,2.78-2.08,5.59.73,3.78,3.47-.72,1.1-2.47,2.06-3.15,3.3h10.54c.62,0,2.48-2,1.99-2.91l-8.74-15.46c.46-2.77,3.1-3.32,4.84-1.11,1.89,2.4,6.59,10.35,7.9,13.18s1.47,5.66-.49,8.35c-.8,1.09-3.57,2.99-4.87,2.99h-11.17Z"/><path class="cls-1" d="M34.61,48.78l-5.21,8.49c-.48,1.62.99,2.97,2.53,3.16,5.24.62,11.57-.53,16.93.06,2.67.93,2.4,4.63-.56,4.97-3.78.44-13.15.38-16.99-.01s-6.79-3.33-7.06-7.12c-.28-4.01,4.27-8.43,5.64-12.07-.37-.33-3.53.89-4.29.93-3.08.16-4.17-3.67-1.37-4.86,1.24-.53,10.39-2.77,11.48-2.69.63.04,1.35.29,1.75.8s2.96,10.32,3.07,11.43c.3,3.08-3.29,4.58-4.81,1.33-.58-1.24-.78-3.05-1.1-4.41Z"/><path class="cls-1" d="M64.81,26.75c.32-1.4.81-5.18,2.21-5.81,2.11-.95,3.92.52,3.7,2.74-.17,1.72-2,8.94-2.67,10.57s-1.42,1.72-3.04,1.6c-1.44-.1-9.94-2.2-11.01-2.85-1.74-1.04-1.64-3.65.19-4.43s4.25,1.03,6.21.87c-1.93-2.19-3.45-6.8-5.33-8.74-1.09-1.12-2.68-1.04-3.8,0-3.02,4.1-5.22,9.73-8.22,13.71-2.33,3.09-5.97,1.05-4.52-2.32,1.25-2.9,6.43-11.36,8.4-13.93,1.8-2.34,4.25-3.64,7.26-3.28,5.78.7,7.26,8.11,10.62,11.87Z"/><path class="cls-1" d="M38.06,93.13c0,4.16-3.37,7.54-7.54,7.54s-7.54-3.37-7.54-7.54,3.37-7.54,7.54-7.54,7.54,3.37,7.54,7.54ZM33.08,93.14c0-1.41-1.15-2.56-2.56-2.56s-2.56,1.15-2.56,2.56,1.15,2.56,2.56,2.56,2.56-1.15,2.56-2.56Z"/><path class="cls-1" d="M107.82,63c1.25-.28,10.26-.28,11.51,0,2.47.55,2.46,4.52-.27,4.95-1.57.25-9.81.27-11.24-.05-2.41-.54-2.41-4.36,0-4.9Z"/><path class="cls-1" d="M131.18,93.13c0,4.16-3.37,7.54-7.54,7.54s-7.54-3.37-7.54-7.54,3.37-7.54,7.54-7.54,7.54,3.37,7.54,7.54ZM126.21,93.14c0-1.41-1.15-2.56-2.56-2.56s-2.56,1.15-2.56,2.56,1.15,2.56,2.56,2.56,2.56-1.15,2.56-2.56Z"/></g></svg>