<?xml version="1.0" encoding="UTF-8"?><svg id="Capa_2" xmlns="http://www.w3.org/2000/svg" viewBox="0 0 128.15 154.55"><defs><style>.cls-1{fill:#c21330;}</style></defs><g id="Capa_11"><path class="cls-1" d="M64.43,140.82c-.95,9.84-11.68,15.54-20.15,10.1-5.91,4.23-14.64,4.7-21.22,1.76-.64-.29-2.57-1.73-2.9-1.75-.3-.02-2.78,1.4-3.64,1.64C8.22,154.86.4,148.63,0,140.19V51c.19-12.18,11.77-19.08,18.35-27.97l.07-8.44c-.58-.53-1.29-.78-1.72-1.52-.69-1.18-.72-7.76-.48-9.31.37-2.42,2.41-3.18,4.57-3.36,5.75-.49,17.48-.55,23.17.01,2.35.23,4,1.17,4.29,3.65.42,3.66.61,8.48-2.21,11.11l.06,7.86,14.35,16.12c1.87,2.61,3.4,5.59,3.68,8.86,2.76-.88,5.46-2.01,8.3-2.64,35.23-7.8,65.19,25.91,52.94,59.92-8.82,24.49-36.93,36.64-60.93,26.17-.21,3.02.29,6.39,0,9.36ZM43.17,5.48h-21.9v4.44h21.9v-4.44ZM40.95,15h-17.45v10l-16,17.96c-.87,1.36-2.41,4.95-2.41,6.48v8.41h44.9c3-2.48,5.79-5.26,9.29-7.04.17-2.64-.9-5.18-2.09-7.46l-16.24-18.34v-10ZM123.03,89.72c0-22.31-18.09-40.4-40.4-40.4s-40.4,18.09-40.4,40.4,18.09,40.4,40.4,40.4,40.4-18.09,40.4-40.4ZM45.71,62.91H5.09v49.5h38.08c-8.01-14.11-8.01-30.88-.17-45.07l2.7-4.44ZM46.5,117.49H5.09v23.64c0,3.22,4.39,6.6,7.46,6.82,4.2.3,5.6-3.05,7.63-3.17,1.36-.08,2.18,1.46,3.2,2.16,4.19,2.89,11.05,3.2,15.65,1.16,1.73-.77,3.68-3.25,4.95-3.32,2.22-.12,3.72,3.9,8.72,3.03,8.67-1.51,6.45-12.35,6.58-18.67-.19-.65-5.53-4.2-6.6-5.14-2.25-1.96-4.15-4.34-6.18-6.51Z"/><path class="cls-1" d="M66.33,92.11c-.76-.17-.51.13-.71.41-.79,1.14-3.41,5.01-3.8,6.02-.65,1.7-.08,3.49,1.8,3.74,4.51.6,10.1-.65,14.72.19,2.52.78,2.18,4.53-.73,4.87-3.19.37-11.39.34-14.61,0-5.19-.56-7.9-5.99-5.92-10.69.33-.79,4.12-6.18,3.86-6.45-3.62,2.37-6.56-2.76-2.72-4.46,1.14-.51,6.92-2.23,8.11-2.39,1.62-.21,2.32.51,2.92,1.87s2.06,5.75,2.33,7.19c1.01,5.32-5.39,4.67-5.25-.3Z"/><path class="cls-1" d="M94.26,107.34c2.66,1.9,2.84,6.6-1.36,5.65-1.76-.4-5.03-5.62-6.91-6.74-.5-.83-.48-2.03,0-2.89.53-.93,5.84-6.73,6.66-6.99,2.16-.69,3.7,1.34,3.05,3.37-.28.87-1.53,1.52-1.76,2.52h8.09c.79,0,2.2-2,1.69-2.93-1.08-3.26-5.96-8.13-6.72-11.1s2.65-4.42,4.87-1.67c1.39,1.72,6.65,10.29,6.9,12.14.41,3.05-.8,5.89-3.43,7.51-.38.24-2.1,1.14-2.35,1.14h-8.73Z"/><path class="cls-1" d="M92.68,72.11l.94-2.3c1.15-1.54,4.09-.91,4.44.88.19.99-.98,8.62-1.41,9.68-.3.73-1.23,1.4-1.99,1.52-.61.1-7.4-1.87-8.4-2.26-1.56-.61-2.31-1-2.17-2.92.18-2.63,2.57-2.07,4.46-1.91-1.56-1.76-4.32-9.6-7.63-6.68-1.38,1.22-4.02,6.65-5.38,8.59-1.19,1.7-2.54,4.33-4.93,2.38-1.02-.83-1.02-1.94-.61-3.16.33-1,6.57-10.69,7.37-11.44,2.52-2.34,6.7-2.74,9.57-.77,2.36,1.61,4.17,5.97,5.74,8.39Z"/></g></svg>