<?xml version="1.0" encoding="UTF-8"?>
<svg id="Capa_2" data-name="Capa 2" xmlns="http://www.w3.org/2000/svg" viewBox="0 0 107.63 100.6">
  <defs>
    <style>
      .cls-1 {
        fill: #c21330;
      }
    </style>
  </defs>
  <g id="Capa_2-2" data-name="Capa 2">
    <g>
      <path class="cls-1" d="M91.86,40.59v45.65c0,.35-.84,1.94-1.12,2.34-1.42,1.99-3.83,2.86-6.22,2.74,2.33,4.71-1.74,10.08-6.92,9.18-3.89-.68-7.84-6.78-10.89-9.18h-8.96c-.38,2.15-.3,3.85.48,5.89.25.64.83,1.07.83,1.77,0,.8-.65,1.49-1.43,1.61l-50.51.02c-5.2-.18-8.54-5.13-6.55-10.02,1.95-4.78,7.33-4.28,11.63-4.24-.02-2.02-.22-4.51,1.62-5.83.21-.15,1.15-.65,1.3-.65h5.72v-14.57c-1.1-1.5-5.22-4.46-5.56-6.09-.38-1.81,1.41-3.66,2.75-4.71.74-.58,2.7-1.09,2.81-1.72V9.82C20.92,4.7,24.59.4,29.8,0h69.09c4.77.34,8.21,3.54,8.74,8.31l-.03,28.48c0,1.33-2.35,3.8-3.54,3.8h-12.2ZM91.21,3.03H29.8c-.68,0-2.64.85-3.24,1.29-.83.62-2.48,2.77-2.48,3.78v42.85l12.74-12.62c1.09-2.64,1.72-4.71,3.99-6.59,1.11-.93,2-1.45,3.51-.91l15.86,15.87c1.42,2.74-2.37,5.35-4.5,6.38-.85.41-2.13.74-2.87,1.23-.33.21-3.68,3.53-3.8,3.77-.09.17-.15.27,0,.43l17.6,17.6.3.08c.79-.88,1.41-1.2,2.5-.52l12.53,12.51c2.74.34,6.71.37,6.91-3.23l-.02-76,.77-3.12,1.62-2.81ZM91.86,37.57h11.55c.41,0,1.32-1.08,1.19-1.61-.55-8.83.71-18.48,0-27.21-.54-6.7-9.57-7.61-12.13-1.97-.15.32-.61,1.74-.61,1.98v28.82ZM43,33.91c-.19.04-1.43,1.37-1.61,1.64-.23.35-1.24,2.49-1.3,2.82-.03.18-.04.33.07.48l12.2,12.21c1.95-.67,3.68-1.35,4.96-3.03l-14.32-14.12ZM38.23,41.22l-12.33,12.32,11.66,11.67,12.33-12.32-11.66-11.67ZM22.95,55.52c-.41.08-2.56,1.1-2.95,1.38-.28.2-1.57,1.42-1.51,1.69l13.68,13.75.44.21c1.85-.93,2.28-2.93,3.1-4.69l-.06-.28-11.87-11.89c-.25-.24-.51-.23-.82-.17ZM46.64,60.43l-1.53,1.53,18.04,18.04,1.53-1.53-18.04-18.04ZM63.59,88.29c-.81-1.37-4.16-3.3-3.63-5.03.16-.51,1.15-.76.72-1.44l-17.71-17.7c-1.03,1.35-3.22,2.77-4.09,4.11-1.71,2.62-1.31,4.72-4.45,6.99-1.41,1.01-2.41.92-3.75-.09-2.26-1.71-4.25-4.73-6.59-6.47v11.22h23.64c.3,0,1.65.82,1.92,1.1.31.33.99,1.64.99,2.03v3.35c2.1.27,5.21-.39,7.19.05,1.44.32,1.11,1.9,1.23,1.9h4.53ZM68.44,79.01l-4.85,4.85c4.49,4.35,8.71,9.02,13.39,13.15,3.42,1.87,6.59-1.98,4.4-5.05l-12.94-12.96ZM47.62,82.88H15.45v3.47h32.17v-3.47ZM55.17,89.37H9.41v8.2h45.54c-.69-2.79-.54-5.44.22-8.2ZM6.38,96.82c.31-2.03-.23-4.79,0-6.91-.17-.18-.17-.28-.45-.24-3.84.61-3.69,7.04.23,7.69-.07-.23.2-.43.22-.54Z"/>
      <path class="cls-1" d="M36.97,20.34l39.68-.05c1.92.09,1.91,2.95,0,3.03h-39.3c-1.92-.22-2.19-2.35-.38-2.98Z"/>
      <path class="cls-1" d="M50.91,30.29c.19-.2.69-.3.96-.44,8.4,0,16.89-.23,25.26.11,1.36.57,1.3,2.7-.26,2.87h-25.06c-1.24-.14-1.78-1.66-.9-2.54Z"/>
      <path class="cls-1" d="M56.4,58.76l20.25-.05c1.76.07,1.92,2.43.33,2.93l-19.98.1c-1.82-.21-2.16-2.08-.6-2.98Z"/>
      <path class="cls-1" d="M59.85,39.55l17-.03c1.79.28,1.51,2.83-.19,3.02l-16.4-.02c-1.65-.4-1.95-2.15-.4-2.97Z"/>
      <path class="cls-1" d="M63.42,49.49c.2-.21,1.01-.46,1.34-.49,3.63-.4,7.96.32,11.67,0,1.77.12,2.31,2.28.64,3.02l-13.27-.11c-.79-.35-.88-1.89-.38-2.42Z"/>
    </g>
  </g>
</svg>