<?xml version="1.0" encoding="UTF-8"?>
<svg id="Capa_2" data-name="Capa 2" xmlns="http://www.w3.org/2000/svg" xmlns:xlink="http://www.w3.org/1999/xlink" viewBox="0 0 409.87 120.86">
  <defs>
    <style>
      .cls-1 {
        clip-path: url(#clippath-1);
      }

      .cls-2 {
        fill: #de2d22;
      }

      .cls-3 {
        fill: #6cbe59;
      }

      .cls-4 {
        fill: #0033a1;
      }

      .cls-5 {
        fill: #3dae2b;
      }

      .cls-6 {
        clip-path: url(#clippath);
      }
    </style>
    <clipPath id="clippath">
      <polygon class="cls-4" points="402.27 80 250.18 79.99 250.18 85.95 402.27 85.95 402.27 94.9 409.87 82.98 402.27 71.04 402.27 80"/>
    </clipPath>
    <clipPath id="clippath-1">
      <polygon class="cls-3" points="0 82.96 7.73 94.9 7.73 85.95 175.06 85.95 175.06 79.99 7.73 79.99 7.73 71.04 0 82.96"/>
    </clipPath>
  </defs>
  <g id="Capa_2-2" data-name="Capa 2">
    <g>
      <g>
        <polygon class="cls-4" points="402.27 80 250.18 79.99 250.18 85.95 402.27 85.95 402.27 94.9 409.87 82.98 402.27 71.04 402.27 80"/>
        <g class="cls-6">
          <rect class="cls-4" x="238.45" y="71.04" width="171.43" height="23.86"/>
        </g>
      </g>
      <g>
        <polygon class="cls-3" points="0 82.96 7.73 94.9 7.73 85.95 175.06 85.95 175.06 79.99 7.73 79.99 7.73 71.04 0 82.96"/>
        <g class="cls-1">
          <rect class="cls-3" y="71.04" width="175.75" height="23.86"/>
        </g>
      </g>
      <g>
        <path class="cls-4" d="M38.2,49.18h-12.21c-.34,0-.63.24-.7.57-.07.33.11.67.43.8,1.01.41,2.21,1.09,2.21,1.95s-.52,1.56-1.58,2.14c-1.18.65-2.61.97-4.26.97-1.86,0-3.43-.4-4.67-1.18-1.34-.87-1.99-2.03-1.99-3.56,0-.39-.32-.71-.71-.71H4.81c-.19,0-.37.08-.51.21-.13.14-.21.32-.21.51.05,4.24,2.02,7.65,5.85,10.14,3.38,2.16,7.48,3.25,12.19,3.25,6.95,0,11.92-2.1,14.79-6.26,1.35-2.02,2.03-4.43,2.03-7.16,0-.36-.02-.7-.05-1.03-.03-.37-.34-.64-.71-.64ZM22.14,62.85c-4.44,0-8.28-1.02-11.42-3.02-3.23-2.1-4.93-4.81-5.17-8.24h8.49c.19,1.69,1.06,3.05,2.61,4.05,1.47.93,3.3,1.41,5.44,1.41,1.89,0,3.56-.39,4.94-1.15,1.92-1.04,2.33-2.42,2.33-3.39,0-.7-.29-1.33-.86-1.9h9.03c0,.08,0,.16,0,.25,0,2.44-.6,4.59-1.78,6.36-2.58,3.74-7.16,5.64-13.61,5.64Z"/>
        <path class="cls-4" d="M74.84,50.99h-9.82c-.31,0-.59.21-.68.51-.32,1.07-1,1.89-2.07,2.53-1.13.67-2.37.99-3.8.99-1.93,0-3.5-.6-4.82-1.82-.96-.93-1.68-2.11-2.12-3.53-.09-.3-.37-.5-.68-.5h-9.6c-.21,0-.41.1-.55.26-.14.16-.19.38-.15.59,1.83,9.29,8.01,14.01,18.36,14.01,4,0,7.52-1.07,10.45-3.17,2.94-2.11,5.01-5.13,6.14-8.96.06-.22.02-.45-.11-.63-.13-.18-.35-.29-.57-.29ZM58.92,62.61c-9.39,0-14.89-3.93-16.78-12.01h8.21c.52,1.42,1.3,2.64,2.33,3.63,1.58,1.47,3.53,2.21,5.8,2.21,1.67,0,3.19-.4,4.52-1.19,1.21-.72,2.06-1.67,2.53-2.84h8.34c-1.09,3.09-2.87,5.54-5.31,7.29-2.69,1.93-5.93,2.91-9.62,2.91Z"/>
        <path class="cls-4" d="M112.11,49.18h-10.37c-.29,0-.56.18-.66.46-.39,1.02-.92,1.93-1.58,2.7-1.37,1.65-3.01,2.45-5.02,2.45s-3.63-.78-5.04-2.39c-.53-.62-1.33-2.17-1.61-2.76-.1-.27-.36-.45-.66-.45h-9.91c-.39,0-.71.32-.71.71v25.29c0,.39.32.71.71.71h9.6c.39,0,.71-.32.71-.71v-15.43c2.59,2.85,5.92,4.29,9.93,4.29h.07c5.21-.04,9.28-2.14,12.11-6.23,1.53-2.23,2.59-4.85,3.14-7.79.04-.21-.02-.42-.15-.59-.14-.16-.34-.26-.55-.26ZM97.56,62.61h-.07c-4.27,0-7.56-1.74-10.05-5.3-.18-.25-.5-.36-.8-.27-.3.09-.5.37-.5.68v16.75h-8.18v-23.87h8.75c.34.68,1.06,2.05,1.65,2.73,1.68,1.91,3.74,2.88,6.11,2.88s4.49-1,6.11-2.96c.66-.78,1.21-1.67,1.64-2.65h9.02c-.55,2.4-1.47,4.55-2.74,6.4-2.58,3.73-6.17,5.57-10.94,5.61Z"/>
        <path class="cls-4" d="M149.2,49.18h-10.17c-.36,0-.67.27-.71.63-.16,1.39-.56,2.49-1.17,3.26-.65.78-1.63,1.46-2.92,2.04-1.3.57-2.57.87-3.78.87-2.45,0-3.55-1.05-3.55-3.41,0-.92.17-1.7.5-2.34.12-.22.11-.49-.02-.7-.13-.21-.36-.34-.61-.34h-9.89c-.34,0-.63.24-.7.57-.21,1.01-.31,2.12-.31,3.29,0,3.7,1.39,6.57,4.12,8.53,2.3,1.63,5.24,2.46,8.73,2.46,4.44,0,7.87-1.04,10.24-3.08.23.86.44,1.48.66,1.88.12.23.36.37.63.37h8.94c.39,0,.71-.32.71-.71v-12.6c0-.39-.32-.71-.71-.71ZM148.49,61.78h-7.77c-.16-.42-.38-1.14-.65-2.37-.06-.26-.26-.47-.52-.54-.26-.07-.53.02-.71.22-2.08,2.34-5.48,3.52-10.11,3.52-3.19,0-5.85-.74-7.91-2.2-2.37-1.7-3.52-4.11-3.52-7.37,0-.86.06-1.68.18-2.44h8.25c-.17.6-.25,1.25-.25,1.96,0,3.16,1.72,4.83,4.97,4.83,1.4,0,2.87-.33,4.35-.99,1.49-.66,2.65-1.48,3.45-2.44.69-.87,1.15-2,1.39-3.37h8.84v11.18Z"/>
        <path class="cls-4" d="M163.15,49.18h-9.61c-.39,0-.71.32-.71.71v12.6c0,.39.32.71.71.71h9.61c.39,0,.71-.32.71-.71v-12.6c0-.39-.32-.71-.71-.71ZM162.44,61.78h-8.18v-11.18h8.18v11.18Z"/>
      </g>
      <g>
        <path class="cls-5" d="M315.61,48.61h-9.69c-.37,0-.68.28-.71.65-.17,1.82-.81,3.2-1.98,4.23-1.17,1.03-2.48,1.53-3.99,1.53-3.58-.07-5.63-2.57-6.27-7.66-.04-.36-.35-.62-.71-.62h-9.96c-.2,0-.39.08-.52.23-.14.15-.2.34-.19.54.36,4.56,1.76,8.36,4.16,11.29,3.04,3.71,7.45,5.59,13.12,5.59h0c4.52-.05,8.45-1.45,11.68-4.16,3.25-2.73,5.18-6.36,5.75-10.81.03-.2-.04-.41-.17-.56-.14-.15-.33-.24-.53-.24ZM286.86,57.88c-2.08-2.54-3.35-5.81-3.77-9.73h8.55c.83,5.42,3.37,8.2,7.58,8.28,1.86,0,3.52-.63,4.94-1.88,1.29-1.13,2.09-2.65,2.38-4.52h8.24c-.64,3.72-2.36,6.77-5.13,9.09-2.97,2.5-6.6,3.78-10.78,3.83-5.22,0-9.26-1.71-12.01-5.07Z"/>
        <path class="cls-5" d="M280.44,48.61h-9.69c-.37,0-.68.28-.71.65-.17,1.82-.81,3.21-1.98,4.23-1.17,1.03-2.48,1.53-3.99,1.53-3.59-.07-5.63-2.57-6.27-7.66-.04-.36-.35-.62-.71-.62h-9.96c-.2,0-.39.08-.52.23-.14.15-.2.34-.19.54.36,4.57,1.76,8.37,4.17,11.29,3.04,3.71,7.45,5.59,13.12,5.59h0c4.52-.05,8.45-1.45,11.68-4.16,3.24-2.72,5.18-6.36,5.75-10.81.03-.2-.04-.41-.17-.56-.14-.15-.33-.24-.53-.24ZM251.69,57.88c-2.08-2.53-3.35-5.8-3.78-9.73h8.56c.83,5.42,3.37,8.2,7.58,8.28,1.86,0,3.52-.63,4.94-1.88,1.29-1.13,2.09-2.65,2.38-4.52h8.24c-.64,3.72-2.37,6.77-5.13,9.09-2.97,2.5-6.6,3.78-10.78,3.83-5.21,0-9.25-1.71-12.01-5.07Z"/>
        <path class="cls-5" d="M327.6,46.72h-9.6c-.39,0-.71.32-.71.71v15.04c0,.39.32.71.71.71h9.6c.39,0,.71-.32.71-.71v-15.04c0-.39-.32-.71-.71-.71ZM326.89,61.77h-8.18v-13.62h8.18v13.62Z"/>
        <path class="cls-5" d="M367.8,46.73h-9.74c-.35,0-.65.26-.7.61-.7,4.92-3.27,7.32-7.83,7.32s-7.19-2.39-7.9-7.32c-.05-.35-.35-.61-.7-.61h-9.97c-.2,0-.4.09-.53.24-.14.15-.2.36-.17.56.54,4.36,2.23,8.06,5.02,11,3.47,3.65,8.25,5.49,14.22,5.49s10.59-1.82,14.04-5.42c2.78-2.91,4.46-6.64,5-11.07.02-.2-.04-.4-.17-.56-.14-.15-.33-.24-.53-.24ZM349.47,62.6c-5.56,0-10-1.7-13.18-5.05-2.41-2.53-3.93-5.69-4.53-9.4h8.55c.95,5.26,4.04,7.93,9.21,7.93s8.2-2.67,9.15-7.93h8.32c-.59,3.77-2.1,6.95-4.5,9.46-3.17,3.31-7.55,4.99-13.01,4.99Z"/>
        <path class="cls-5" d="M403.91,46.72h-9.6c-.39,0-.71.32-.71.71v15.04c0,.39.32.71.71.71h9.6c.39,0,.71-.32.71-.71v-15.04c0-.39-.32-.71-.71-.71ZM403.2,61.77h-8.18v-13.62h8.18v13.62Z"/>
        <path class="cls-5" d="M380.56,46.72h-9.6c-.39,0-.71.32-.71.71v15.04c0,.39.32.71.71.71h9.6c.39,0,.71-.32.71-.71v-15.04c0-.39-.32-.71-.71-.71ZM379.84,61.77h-8.18v-13.62h8.18v13.62Z"/>
      </g>
      <g>
        <path class="cls-4" d="M17.39,33.62c1.07-.65,2.36-.97,3.84-.97,3.6,0,5.58,1.48,6.04,4.53l.05.33h10.27l-.02-.41c-.23-4.11-2.01-7.34-5.28-9.57-2.82-2-6.36-3.01-10.52-3.01-3.04,0-5.91.58-8.54,1.71-2.66,1.14-4.58,2.7-5.71,4.64-1.12,1.92-1.69,4.08-1.69,6.41,0,3.26,1.34,5.87,3.98,7.76l.1.07h.13c2.76,0,6.61-.02,10.78-.03,4.94-.02,10.34-.04,14.91-.04h.94l-.67-.67c-.92-.92-2.09-1.73-3.49-2.41-1.67-.79-5.3-1.81-11.09-3.1-4.61-1.02-5.57-2.17-5.57-2.97,0-.91.5-1.65,1.52-2.26Z"/>
        <path class="cls-4" d="M58.24,24.75c-5.64,0-10.1,1.73-13.23,5.13-3.13,3.38-4.71,7.97-4.71,13.63,0,.42,0,.81.01,1.22v.38h35.37l-.02-.41c-.55-13.24-6.41-19.95-17.42-19.95ZM58.03,33.24c1.75,0,3.32.68,4.67,2.01,1.28,1.26,2.06,3,2.33,5.16h-13.99c.39-2.24,1.24-4.02,2.55-5.29,1.26-1.26,2.71-1.87,4.44-1.87Z"/>
        <path class="cls-4" d="M105.52,27.42c-2.68-1.85-5.63-2.79-8.75-2.79-4.23,0-7.54,1.64-9.87,4.87,0-.16,0-.34,0-.54v-3.26h-10.03v19.42h9.91v-.39c.08-7.33,2.58-10.9,7.63-10.9s7.83,3.52,7.83,10.75v.53h10.17l.02.02.52-.03.02-.39c0-3.91-.59-7.44-1.71-10.22-1.14-2.85-3.08-5.23-5.75-7.08Z"/>
        <path class="cls-4" d="M133.72,24.75c-3.08,0-5.88.47-8.33,1.39-2.66,1.04-4.62,2.52-5.82,4.42-1.19,1.89-1.91,4.37-2.14,7.38l-.03.42h9.94l.04-.35c.17-1.64.84-2.87,2.04-3.78,1.06-.81,2.36-1.22,3.87-1.22s2.75.4,3.84,1.19c1.07.78,1.59,1.78,1.59,3.08,0,1.7-2.98,2.44-5.48,2.76-5.57.7-9.17,1.47-11.01,2.37-1.03.5-2,1.19-2.89,2.04l-.69.67h30.93v-5.14c0-10.01-5.34-15.14-15.88-15.23Z"/>
        <path class="cls-4" d="M173.36,24.87c-2.6,0-4.75.48-6.38,1.42-.97.53-2.25,1.63-3.91,3.34,0-.19,0-.43,0-.74v-3.19h-9.91v19.44h10.39v-1.54c0-5.61,2.76-8.34,8.44-8.34.85,0,1.71.06,2.62.17l.44.05v-10.61h-1.68Z"/>
      </g>
      <g>
        <path class="cls-4" d="M187.16,37.45c-8.36,4.04-12.59,11.51-12.59,22.21,0,7.48,2.79,13.28,8.28,17.22,4.69,3.33,10.72,5.02,17.91,5.02,2.62,0,5.07-.17,7.3-.51l.33-.05v-14.75l-.47.09c-1.09.21-2.33.33-3.5.33-5.83,0-8.67-2.74-8.67-8.36,0-4.45,1.67-7.49,5.12-9.29,1.24-.7,3.66-1.45,7.21-2.23l.31-.07v-14.33l-.44.06c-10.27,1.38-17.27,2.95-20.79,4.67Z"/>
        <path class="cls-4" d="M207.98.06c-5.16.28-9.92,1.24-14.17,2.85-5.57,2.17-9.66,5.26-12.14,9.2-2.49,3.93-4,9.14-4.48,15.49l-.03.42h20.28l.04-.35c.37-3.57,1.89-6.38,4.51-8.35,1.76-1.34,3.81-2.19,6.09-2.52l.34-.05V.04l-.41.02Z"/>
      </g>
      <path class="cls-3" d="M213.24.01h-.41s0,16.79,0,16.79l.33.06c2.1.36,4.02,1.16,5.72,2.4,2.36,1.71,3.55,4.03,3.55,6.89s-3.12,4.77-9.28,5.9l-.32.06v14.07l.47-.1c3.99-.85,6.9-1.93,8.85-3.29.02.75.06,1.72.13,2.9.1,1.68.15,2.91.15,3.77,0,4.85-.99,8.54-2.93,10.98-1.57,1.9-3.68,3.41-6.44,4.64l-.23.1v15.2l.51-.16c4.02-1.26,7.23-3.19,9.81-5.89.62,2.75,1.2,4.59,1.76,5.61l.11.2h19.62V31.91C244.65,11.5,234.08.77,213.24.01Z"/>
      <g>
        <rect class="cls-3" x="317.53" y="25.6" width="10.55" height="16.99"/>
        <rect class="cls-3" x="317.53" y="12.32" width="10.55" height="9.84"/>
        <polygon class="cls-3" points="357.96 17.24 348.32 17.24 344.61 23.4 352.64 23.4 357.96 17.24"/>
        <path class="cls-3" d="M363.54,30.18c-3.4-3.67-8.14-5.53-14.07-5.53s-10.67,1.83-14.08,5.42c-2.93,3.1-4.62,7.13-5.02,12l-.04.51h10.92l.04-.43c.54-5.63,3.23-8.37,8.23-8.37s7.61,2.74,8.17,8.37l.04.43h10.68l-.04-.51c-.39-4.82-2.02-8.82-4.82-11.89Z"/>
        <path class="cls-3" d="M275.61,28.31c-3.04-2.42-6.93-3.65-11.56-3.65-5.86,0-10.38,2.02-13.42,6-2.14,2.8-3.49,6.75-3.91,11.42l-.05.52h10.75l.05-.42c.23-2.02.79-3.95,1.54-5.27,1.33-2.25,3.14-3.35,5.53-3.35,1.42,0,2.69.5,3.77,1.49,1.1,1,1.81,2.4,2.11,4.16l.07.39h10.53l-.03-.5c-.28-4.53-2.09-8.16-5.37-10.78Z"/>
        <path class="cls-3" d="M310.82,28.31c-3.04-2.42-6.93-3.65-11.56-3.65-5.86,0-10.38,2.02-13.42,6-2.14,2.81-3.5,6.75-3.92,11.42l-.05.52h10.75l.05-.42c.23-2.02.79-3.95,1.54-5.27,1.33-2.25,3.14-3.35,5.53-3.35,1.42,0,2.69.5,3.78,1.49,1.1,1,1.81,2.4,2.11,4.16l.07.39h10.53l-.03-.5c-.28-4.54-2.09-8.16-5.37-10.78Z"/>
        <path class="cls-3" d="M402.82,30.45c-2.26-3.92-5.93-5.91-10.91-5.91-2.43,0-4.76.58-6.94,1.74-1.75.93-3.2,2.18-4.31,3.72,0-.15,0-.31,0-.5v-3.89h-10.2v16.98h10.55v-.98c0-5.34,2.28-7.94,6.98-7.94,2.3,0,3.9.56,4.75,1.65.71.97,1.07,2.69,1.07,5.12v2.14h10.55v-5.34c0-2.63-.52-4.91-1.56-6.8Z"/>
      </g>
      <path class="cls-3" d="M26.44,96.26c1.03-.54,2.19-.8,3.49-.8,1.48,0,2.84.37,4.06,1.1,1.23.73,2.19,1.76,2.89,3.07.7,1.32,1.05,2.83,1.05,4.54s-.35,3.24-1.05,4.59c-.7,1.35-1.66,2.4-2.89,3.15-1.23.75-2.58,1.13-4.06,1.13-1.3,0-2.45-.26-3.46-.79-1.01-.53-1.83-1.18-2.47-1.96v10.57h-3.52v-25.12h3.52v2.5c.6-.78,1.41-1.44,2.44-1.98ZM33.63,101.13c-.48-.86-1.12-1.5-1.92-1.95-.79-.44-1.64-.66-2.55-.66s-1.73.23-2.52.68c-.79.45-1.43,1.11-1.92,1.98-.48.87-.73,1.89-.73,3.06s.24,2.2.73,3.07c.48.88,1.12,1.54,1.92,1.99.79.45,1.63.68,2.52.68s1.76-.23,2.55-.7c.79-.46,1.43-1.14,1.92-2.02.48-.89.73-1.92.73-3.09s-.24-2.19-.73-3.04Z"/>
      <path class="cls-3" d="M44.15,111.95c-1.3-.73-2.32-1.76-3.06-3.09-.74-1.33-1.11-2.87-1.11-4.62s.38-3.26,1.14-4.6c.76-1.34,1.8-2.37,3.12-3.09,1.32-.72,2.79-1.08,4.42-1.08s3.1.36,4.42,1.08c1.32.72,2.36,1.75,3.12,3.09.76,1.34,1.14,2.87,1.14,4.6s-.39,3.27-1.17,4.6c-.78,1.34-1.85,2.37-3.2,3.11-1.35.73-2.84,1.1-4.46,1.1s-3.06-.37-4.36-1.1ZM51.06,109.33c.79-.43,1.44-1.08,1.93-1.95.49-.86.74-1.92.74-3.15s-.24-2.28-.71-3.14c-.47-.85-1.1-1.5-1.88-1.93-.78-.43-1.63-.65-2.53-.65s-1.75.22-2.52.65c-.77.43-1.39,1.08-1.84,1.93-.45.85-.68,1.9-.68,3.14,0,1.83.47,3.25,1.41,4.25.94,1,2.12,1.5,3.54,1.5.91,0,1.76-.22,2.55-.65Z"/>
      <path class="cls-3" d="M66.1,96.19c.85-.48,1.87-.73,3.04-.73v3.65h-.9c-1.38,0-2.43.35-3.14,1.05s-1.07,1.92-1.07,3.65v8.96h-3.52v-17.03h3.52v2.47c.51-.86,1.2-1.54,2.05-2.02Z"/>
      <path class="cls-3" d="M95.23,95.74v17.03h-3.52v-2.01c-.56.7-1.28,1.25-2.18,1.65-.9.4-1.85.6-2.86.6-1.34,0-2.54-.28-3.6-.83-1.06-.56-1.9-1.38-2.5-2.47-.61-1.09-.91-2.41-.91-3.96v-10.01h3.49v9.49c0,1.53.38,2.69,1.14,3.51.76.81,1.8,1.22,3.12,1.22s2.36-.41,3.14-1.22c.77-.81,1.16-1.98,1.16-3.51v-9.49h3.52Z"/>
      <path class="cls-3" d="M111.74,96.3c1.06.56,1.89,1.38,2.49,2.47.6,1.09.9,2.41.9,3.96v10.04h-3.49v-9.52c0-1.52-.38-2.69-1.14-3.51s-1.8-1.22-3.12-1.22-2.36.41-3.14,1.22c-.77.81-1.16,1.98-1.16,3.51v9.52h-3.52v-17.03h3.52v1.95c.58-.7,1.31-1.25,2.21-1.64.9-.39,1.85-.59,2.86-.59,1.34,0,2.54.28,3.6.83Z"/>
      <path class="cls-3" d="M151.23,96.3c1.06.56,1.89,1.38,2.5,2.47.61,1.09.91,2.41.91,3.96v10.04h-3.49v-9.52c0-1.52-.38-2.69-1.14-3.51-.76-.81-1.8-1.22-3.12-1.22s-2.36.41-3.14,1.22-1.16,1.98-1.16,3.51v9.52h-3.49v-9.52c0-1.52-.38-2.69-1.14-3.51s-1.8-1.22-3.12-1.22-2.36.41-3.14,1.22c-.77.81-1.16,1.98-1.16,3.51v9.52h-3.52v-17.03h3.52v1.95c.58-.7,1.31-1.25,2.19-1.64.89-.39,1.83-.59,2.84-.59,1.36,0,2.57.29,3.65.87,1.07.58,1.89,1.41,2.47,2.5.51-1.03,1.32-1.85,2.41-2.46,1.09-.61,2.27-.91,3.52-.91,1.34,0,2.54.28,3.6.83Z"/>
      <path class="cls-3" d="M174.3,105.57h-13.01c.1,1.36.61,2.45,1.51,3.27.91.82,2.02,1.24,3.34,1.24,1.89,0,3.23-.79,4.02-2.38h3.8c-.51,1.57-1.45,2.85-2.8,3.85-1.35,1-3.02,1.5-5.02,1.5-1.63,0-3.09-.37-4.37-1.1-1.29-.73-2.3-1.76-3.03-3.09-.73-1.33-1.1-2.87-1.1-4.62s.35-3.29,1.07-4.62c.71-1.33,1.71-2.35,3-3.07,1.29-.72,2.77-1.08,4.43-1.08s3.04.35,4.29,1.05c1.26.7,2.24,1.68,2.94,2.95.7,1.27,1.05,2.72,1.05,4.37,0,.64-.04,1.22-.12,1.73ZM170.74,102.72c-.02-1.3-.48-2.34-1.39-3.12-.91-.78-2.03-1.17-3.37-1.17-1.22,0-2.26.39-3.12,1.16-.87.77-1.38,1.82-1.55,3.14h9.42Z"/>
      <path class="cls-3" d="M181.09,116.1c0,1.67-.42,2.88-1.25,3.63-.83.75-2.04,1.13-3.63,1.13h-1.82v-2.97h1.21c.72,0,1.23-.14,1.53-.42s.45-.74.45-1.38v-20.36h3.52v20.36ZM177.76,92.83c-.43-.43-.65-.97-.65-1.61s.22-1.17.65-1.61.97-.65,1.61-.65,1.14.22,1.58.65.65.97.65,1.61-.22,1.17-.65,1.61-.96.65-1.58.65-1.17-.22-1.61-.65Z"/>
      <path class="cls-3" d="M188.45,111.95c-1.3-.73-2.32-1.76-3.06-3.09-.74-1.33-1.11-2.87-1.11-4.62s.38-3.26,1.14-4.6c.76-1.34,1.8-2.37,3.12-3.09,1.32-.72,2.79-1.08,4.42-1.08s3.1.36,4.42,1.08c1.32.72,2.36,1.75,3.12,3.09.76,1.34,1.14,2.87,1.14,4.6s-.39,3.27-1.17,4.6c-.78,1.34-1.85,2.37-3.2,3.11-1.35.73-2.84,1.1-4.47,1.1s-3.06-.37-4.36-1.1ZM195.35,109.33c.79-.43,1.44-1.08,1.93-1.95.49-.86.74-1.92.74-3.15s-.24-2.28-.71-3.14c-.47-.85-1.1-1.5-1.89-1.93-.78-.43-1.63-.65-2.53-.65s-1.75.22-2.52.65c-.77.43-1.39,1.08-1.84,1.93-.45.85-.68,1.9-.68,3.14,0,1.83.47,3.25,1.41,4.25.94,1,2.12,1.5,3.54,1.5.91,0,1.76-.22,2.55-.65Z"/>
      <path class="cls-3" d="M210.4,96.19c.85-.48,1.87-.73,3.04-.73v3.65h-.9c-1.38,0-2.43.35-3.14,1.05s-1.07,1.92-1.07,3.65v8.96h-3.52v-17.03h3.52v2.47c.51-.86,1.2-1.54,2.06-2.02Z"/>
      <path class="cls-2" d="M239.52,95.74v17.03h-3.52v-2.01c-.56.7-1.28,1.25-2.18,1.65-.9.4-1.85.6-2.86.6-1.34,0-2.54-.28-3.6-.83-1.06-.56-1.9-1.38-2.5-2.47-.61-1.09-.91-2.41-.91-3.96v-10.01h3.49v9.49c0,1.53.38,2.69,1.14,3.51.76.81,1.8,1.22,3.12,1.22s2.36-.41,3.14-1.22c.77-.81,1.16-1.98,1.16-3.51v-9.49h3.52Z"/>
      <path class="cls-2" d="M243.74,99.63c.71-1.32,1.68-2.34,2.9-3.07,1.23-.73,2.58-1.1,4.06-1.1,1.34,0,2.51.26,3.51.79,1,.52,1.8,1.18,2.39,1.96v-2.47h3.55v17.03h-3.55v-2.53c-.6.8-1.41,1.47-2.44,2.01-1.03.54-2.2.8-3.52.8-1.46,0-2.8-.38-4.02-1.13-1.21-.75-2.18-1.8-2.89-3.15-.71-1.35-1.07-2.88-1.07-4.59s.35-3.22,1.07-4.54ZM255.88,101.18c-.48-.87-1.12-1.52-1.9-1.98-.78-.45-1.63-.68-2.53-.68s-1.75.22-2.53.66c-.78.44-1.42,1.09-1.9,1.95-.48.85-.73,1.87-.73,3.04s.24,2.21.73,3.09c.48.89,1.12,1.56,1.92,2.02.79.46,1.63.7,2.52.7s1.75-.23,2.53-.68c.78-.45,1.42-1.12,1.9-1.99.48-.88.73-1.9.73-3.07s-.24-2.19-.73-3.06Z"/>
      <path class="cls-2" d="M288.7,96.3c1.06.56,1.89,1.38,2.5,2.47.61,1.09.91,2.41.91,3.96v10.04h-3.49v-9.52c0-1.52-.38-2.69-1.14-3.51-.76-.81-1.8-1.22-3.12-1.22s-2.36.41-3.14,1.22-1.16,1.98-1.16,3.51v9.52h-3.49v-9.52c0-1.52-.38-2.69-1.14-3.51-.76-.81-1.8-1.22-3.12-1.22s-2.36.41-3.14,1.22c-.77.81-1.16,1.98-1.16,3.51v9.52h-3.52v-17.03h3.52v1.95c.58-.7,1.31-1.25,2.19-1.64.89-.39,1.83-.59,2.84-.59,1.36,0,2.57.29,3.65.87,1.07.58,1.89,1.41,2.47,2.5.51-1.03,1.32-1.85,2.41-2.46,1.09-.61,2.27-.91,3.52-.91,1.34,0,2.54.28,3.6.83Z"/>
      <path class="cls-3" d="M302.26,96.25c1.04-.53,2.2-.79,3.48-.79,1.5,0,2.86.36,4.08,1.08,1.21.72,2.17,1.75,2.87,3.07.7,1.33,1.05,2.85,1.05,4.56s-.35,3.24-1.05,4.59c-.7,1.35-1.66,2.4-2.89,3.15-1.23.75-2.58,1.13-4.06,1.13-1.32,0-2.49-.26-3.51-.77-1.02-.51-1.83-1.17-2.43-1.98v2.47h-3.52v-22.87h3.52v8.37c.6-.82,1.42-1.5,2.46-2.02ZM309.43,101.13c-.48-.86-1.12-1.5-1.92-1.95-.79-.44-1.64-.66-2.55-.66s-1.73.23-2.52.68-1.43,1.11-1.92,1.98c-.48.87-.73,1.89-.73,3.06s.24,2.2.73,3.07c.48.88,1.12,1.54,1.92,1.99.79.45,1.63.68,2.52.68s1.76-.23,2.55-.7c.79-.46,1.43-1.14,1.92-2.02.48-.89.73-1.92.73-3.09s-.24-2.19-.73-3.04Z"/>
      <path class="cls-3" d="M317.11,92.83c-.43-.43-.65-.97-.65-1.61s.22-1.17.65-1.61.97-.65,1.61-.65,1.14.22,1.58.65.65.97.65,1.61-.22,1.17-.65,1.61-.96.65-1.58.65-1.17-.22-1.61-.65ZM320.45,95.74v17.03h-3.52v-17.03h3.52Z"/>
      <path class="cls-3" d="M340.25,105.57h-13.01c.1,1.36.61,2.45,1.51,3.27.91.82,2.02,1.24,3.34,1.24,1.89,0,3.23-.79,4.02-2.38h3.8c-.51,1.57-1.45,2.85-2.8,3.85-1.35,1-3.02,1.5-5.02,1.5-1.63,0-3.09-.37-4.37-1.1-1.29-.73-2.3-1.76-3.03-3.09-.73-1.33-1.1-2.87-1.1-4.62s.35-3.29,1.07-4.62,1.71-2.35,3-3.07c1.29-.72,2.77-1.08,4.43-1.08s3.04.35,4.29,1.05c1.26.7,2.24,1.68,2.94,2.95.7,1.27,1.05,2.72,1.05,4.37,0,.64-.04,1.22-.12,1.73ZM336.7,102.72c-.02-1.3-.48-2.34-1.39-3.12-.91-.78-2.03-1.17-3.37-1.17-1.22,0-2.26.39-3.12,1.16-.87.77-1.38,1.82-1.55,3.14h9.42Z"/>
      <path class="cls-3" d="M355.72,96.3c1.06.56,1.89,1.38,2.49,2.47.6,1.09.9,2.41.9,3.96v10.04h-3.49v-9.52c0-1.52-.38-2.69-1.14-3.51-.76-.81-1.8-1.22-3.12-1.22s-2.36.41-3.14,1.22c-.77.81-1.16,1.98-1.16,3.51v9.52h-3.52v-17.03h3.52v1.95c.58-.7,1.31-1.25,2.21-1.64.9-.39,1.85-.59,2.86-.59,1.34,0,2.54.28,3.6.83Z"/>
      <path class="cls-3" d="M367.38,98.61v9.42c0,.64.15,1.1.45,1.38s.81.42,1.53.42h2.16v2.94h-2.78c-1.59,0-2.8-.37-3.65-1.11s-1.27-1.95-1.27-3.62v-9.42h-2.01v-2.87h2.01v-4.23h3.55v4.23h4.14v2.87h-4.14Z"/>
      <path class="cls-3" d="M389.94,105.57h-13.01c.1,1.36.61,2.45,1.51,3.27.91.82,2.02,1.24,3.34,1.24,1.89,0,3.23-.79,4.02-2.38h3.8c-.51,1.57-1.45,2.85-2.8,3.85-1.35,1-3.02,1.5-5.02,1.5-1.63,0-3.09-.37-4.37-1.1-1.29-.73-2.3-1.76-3.03-3.09-.73-1.33-1.1-2.87-1.1-4.62s.35-3.29,1.07-4.62,1.71-2.35,3-3.07c1.29-.72,2.77-1.08,4.43-1.08s3.04.35,4.29,1.05c1.26.7,2.24,1.68,2.94,2.95.7,1.27,1.05,2.72,1.05,4.37,0,.64-.04,1.22-.12,1.73ZM386.38,102.72c-.02-1.3-.48-2.34-1.39-3.12-.91-.78-2.03-1.17-3.37-1.17-1.22,0-2.26.39-3.12,1.16-.87.77-1.38,1.82-1.55,3.14h9.42Z"/>
    </g>
  </g>
</svg>